<svg id="Layer_1" data-name="Layer 1" xmlns="http://www.w3.org/2000/svg" xmlns:xlink="http://www.w3.org/1999/xlink" viewBox="0 0 54.41 45.47"><defs><style>.cls-1{fill:url(#Безымянный_градиент);}.cls-2{fill:url(#Безымянный_градиент_2);}.cls-3{fill:url(#Безымянный_градиент_3);}.cls-4{fill:url(#Безымянный_градиент_4);}.cls-5{fill:#2f2f2f;}.cls-6{fill:#333;}.cls-7{fill:url(#Безымянный_градиент_123);}.cls-8{fill:#e3e3e3;}.cls-9{opacity:0.98;}.cls-10{fill:url(#Безымянный_градиент_114);}.cls-11{fill:url(#Безымянный_градиент_97);}.cls-12{fill:url(#Безымянный_градиент_111);}.cls-13{fill:url(#Безымянный_градиент_110);}</style><linearGradient id="Безымянный_градиент" x1="19.86" y1="1086.12" x2="3.6" y2="1069.87" gradientTransform="translate(-2.79 -1031.05)" gradientUnits="userSpaceOnUse"><stop offset="0" stop-color="#513895"/><stop offset="1" stop-color="#ff3748"/></linearGradient><linearGradient id="Безымянный_градиент_2" x1="24.03" y1="1081.94" x2="7.77" y2="1065.69" xlink:href="#Безымянный_градиент"/><linearGradient id="Безымянный_градиент_3" x1="27.31" y1="1078.66" x2="11.05" y2="1062.41" xlink:href="#Безымянный_градиент"/><linearGradient id="Безымянный_градиент_4" x1="30.38" y1="1075.59" x2="14.12" y2="1059.34" xlink:href="#Безымянный_градиент"/><linearGradient id="Безымянный_градиент_123" x1="40.26" y1="31.53" x2="36.98" y2="28.26" gradientUnits="userSpaceOnUse"><stop offset="0" stop-color="#ff384a"/><stop offset="1" stop-color="#513895"/></linearGradient><linearGradient id="Безымянный_градиент_114" x1="25.26" y1="28.25" x2="20.81" y2="18.69" gradientUnits="userSpaceOnUse"><stop offset="0.58" stop-color="#2b2b2b"/><stop offset="1" stop-color="#5d3891"/><stop offset="1" stop-color="#ee416d"/></linearGradient><linearGradient id="Безымянный_градиент_97" x1="30.57" y1="16.54" x2="24.71" y2="3.96" gradientUnits="userSpaceOnUse"><stop offset="0" stop-color="#2b2b2b"/><stop offset="0" stop-color="#5c3790"/><stop offset="0.19" stop-color="#5d3891"/><stop offset="0.6" stop-color="#ee416d"/></linearGradient><linearGradient id="Безымянный_градиент_111" x1="21.08" y1="19.08" x2="18.48" y2="13.5" gradientUnits="userSpaceOnUse"><stop offset="0" stop-color="#2b2b2b"/><stop offset="0.4" stop-color="#5d3891"/><stop offset="0.81" stop-color="#ee416d"/></linearGradient><linearGradient id="Безымянный_градиент_110" x1="37.09" y1="19.08" x2="34.49" y2="13.5" gradientUnits="userSpaceOnUse"><stop offset="0.44" stop-color="#2b2b2b"/><stop offset="0.97" stop-color="#5d3891"/><stop offset="1" stop-color="#cd3f75"/></linearGradient></defs><path class="cls-1" d="M1.88,45.65H0l1.21-7.27H3.1l1.47,3.88,1.56-3.88H8l1.1,7.27H7.21l-.54-4.19L4.93,45.65H4.21L2.5,41.46Z" transform="translate(0 -0.35)"/><path class="cls-2" d="M14.43,38.38V40H12.21v1.21h2.1v1.6h-2.1v1.29h2.24v1.6H10.3V38.38Z" transform="translate(0 -0.35)"/><path class="cls-3" d="M17.52,38.38v3l2.31-3h2.38l-2.89,3.44,3.15,3.83H20L17.54,42.5v3.15H15.63V38.38Z" transform="translate(0 -0.35)"/><path class="cls-4" d="M22.39,45l.8-1.52a2.41,2.41,0,0,0,1.67.74,1,1,0,0,0,.73-.25.61.61,0,0,0,.18-.46.51.51,0,0,0-.2-.43,3.23,3.23,0,0,0-.94-.39l-.49-.15A2.25,2.25,0,0,1,23.09,42a1.86,1.86,0,0,1-.41-1.28A2.38,2.38,0,0,1,23.34,39a2.55,2.55,0,0,1,1.87-.73,4.77,4.77,0,0,1,2.24.59l-.75,1.47a2,2,0,0,0-1.24-.49.87.87,0,0,0-.62.21.56.56,0,0,0-.19.4.46.46,0,0,0,.1.32,1.17,1.17,0,0,0,.63.33l.58.17a3,3,0,0,1,1.32.72,1.83,1.83,0,0,1,.47,1.3,2.48,2.48,0,0,1-.69,1.83,2.87,2.87,0,0,1-2.15.74,4.32,4.32,0,0,1-1.42-.24A4.11,4.11,0,0,1,22.39,45Z" transform="translate(0 -0.35)"/><path class="cls-5" d="M33.23,40H31.68v5.7H29.79V40H28.25v-1.6h5Z" transform="translate(0 -0.35)"/><path class="cls-5" d="M38.62,45.65l-.45-1.22H35.53L35,45.65H33l2.79-7.27H37.9l2.73,7.27ZM36.05,43h1.62l-.82-2.35Z" transform="translate(0 -0.35)"/><path class="cls-5" d="M46.42,43.22v2.23a5.07,5.07,0,0,1-1.63.36,3.74,3.74,0,0,1-3.89-3.74,3.67,3.67,0,0,1,.3-1.46,4,4,0,0,1,.8-1.22,3.72,3.72,0,0,1,2.74-1.13,4.51,4.51,0,0,1,1.7.37v2.26a2,2,0,0,0-1.64-.8,1.91,1.91,0,0,0-1.31.48,2,2,0,0,0-.63,1.49A1.86,1.86,0,0,0,44.69,44h.09A2.13,2.13,0,0,0,46.42,43.22Z" transform="translate(0 -0.35)"/><path class="cls-5" d="M49.51,38.38v3l2.31-3h2.33l-2.89,3.44,3.15,3.83H52L49.54,42.5v3.15H47.62V38.38Z" transform="translate(0 -0.35)"/><polygon class="cls-6" points="40.51 22.95 40.51 21.79 32.09 21.79 32.09 34.35 33.29 34.35 33.29 22.95 40.51 22.95"/><polygon class="cls-6" points="38.36 20.8 38.36 19.64 29.94 19.64 29.94 32.2 31.14 32.2 31.14 20.8 38.36 20.8"/><rect class="cls-6" x="34.41" y="23.94" width="8.43" height="12.56"/><circle class="cls-7" cx="38.62" cy="29.89" r="2.32"/><circle class="cls-6" cx="38.62" cy="29.89" r="0.74"/><polygon class="cls-8" points="23.21 5.5 23.21 4.34 14.79 4.34 14.79 16.9 15.99 16.9 15.99 5.5 23.21 5.5"/><polygon class="cls-8" points="20.98 3.31 20.98 2.15 12.55 2.15 12.55 14.71 13.76 14.71 13.76 3.31 20.98 3.31"/><polygon class="cls-8" points="18.73 1.16 18.73 0 10.3 0 10.3 12.56 11.5 12.56 11.5 1.16 18.73 1.16"/><g class="cls-9"><path class="cls-10" d="M28.73,22H23.15a1,1,0,0,1-1-1v-.73H17.45v4.47a1.91,1.91,0,0,0,1.92,1.9h9.36Z" transform="translate(0 -0.35)"/><path class="cls-11" d="M36.2,6.64H19.37a1.92,1.92,0,0,0-1.92,1.9V13h4.67v-.73a1,1,0,0,1,1-1h9.26a1,1,0,0,1,1,1h0V13h4.67V8.54A1.92,1.92,0,0,0,36.2,6.64Z" transform="translate(0 -0.35)"/><rect class="cls-12" x="17.45" y="13.98" width="4.67" height="4.61"/><rect class="cls-13" x="33.45" y="13.98" width="4.67" height="4.61"/></g></svg>