<svg id="Layer_1" data-name="Layer 1" xmlns="http://www.w3.org/2000/svg" xmlns:xlink="http://www.w3.org/1999/xlink" viewBox="0 0 126.89 29.33"><defs><style>.cls-1{fill:url(#Безымянный_градиент);}.cls-2{fill:url(#Безымянный_градиент_2);}.cls-3{fill:url(#Безымянный_градиент_3);}.cls-4{fill:url(#Безымянный_градиент_4);}.cls-5{fill:#2f2f2f;}.cls-6{fill:#333;}.cls-7{fill:url(#Безымянный_градиент_123);}.cls-8{fill:#e3e3e3;}.cls-9{opacity:0.98;}.cls-10{fill:url(#Безымянный_градиент_114);}.cls-11{fill:url(#Безымянный_градиент_97);}.cls-12{fill:url(#Безымянный_градиент_111);}.cls-13{fill:url(#Безымянный_градиент_110);}</style><linearGradient id="Безымянный_градиент" x1="69.14" y1="-1054.46" x2="40.97" y2="-1026.3" gradientTransform="matrix(1, 0, 0, -1, -2.39, -1016.99)" gradientUnits="userSpaceOnUse"><stop offset="0" stop-color="#513895"/><stop offset="1" stop-color="#ff3748"/></linearGradient><linearGradient id="Безымянный_градиент_2" x1="76.37" y1="-1047.25" x2="48.18" y2="-1019.06" xlink:href="#Безымянный_градиент"/><linearGradient id="Безымянный_градиент_3" x1="82.02" y1="-1041.6" x2="53.83" y2="-1013.41" xlink:href="#Безымянный_градиент"/><linearGradient id="Безымянный_градиент_4" x1="87.35" y1="-1036.26" x2="59.17" y2="-1008.08" xlink:href="#Безымянный_градиент"/><linearGradient id="Безымянный_градиент_123" x1="24.07" y1="25.34" x2="21.44" y2="22.71" gradientUnits="userSpaceOnUse"><stop offset="0" stop-color="#ff384a"/><stop offset="1" stop-color="#513895"/></linearGradient><linearGradient id="Безымянный_градиент_114" x1="16.6" y1="23.65" x2="13.02" y2="15.97" gradientUnits="userSpaceOnUse"><stop offset="0.58" stop-color="#2b2b2b"/><stop offset="1" stop-color="#5d3891"/><stop offset="1" stop-color="#ee416d"/></linearGradient><linearGradient id="Безымянный_градиент_97" x1="20.86" y1="14.24" x2="16.15" y2="4.13" gradientUnits="userSpaceOnUse"><stop offset="0" stop-color="#2b2b2b"/><stop offset="0" stop-color="#5c3790"/><stop offset="0.19" stop-color="#5d3891"/><stop offset="0.6" stop-color="#ee416d"/></linearGradient><linearGradient id="Безымянный_градиент_111" x1="8.66" y1="15.33" x2="6.57" y2="10.85" gradientUnits="userSpaceOnUse"><stop offset="0" stop-color="#2b2b2b"/><stop offset="0.4" stop-color="#5d3891"/><stop offset="0.81" stop-color="#ee416d"/></linearGradient><linearGradient id="Безымянный_градиент_110" x1="21.53" y1="15.33" x2="19.44" y2="10.85" gradientUnits="userSpaceOnUse"><stop offset="0.44" stop-color="#2b2b2b"/><stop offset="0.97" stop-color="#5d3891"/><stop offset="1" stop-color="#cd3f75"/></linearGradient></defs><path class="cls-1" d="M40.42,21.16H37.13l2.14-12.6h3.26l2.6,6.73,2.7-6.73h3.3L53,21.16H49.68l-.93-7.25-3,7.25H44.41L41.5,13.91Z" transform="translate(-4.57 -1.23)"/><path class="cls-2" d="M62.13,8.56v2.78H58.29v2.1H62v2.77H58.29v2.18h3.84v2.77H55V8.56Z" transform="translate(-4.57 -1.23)"/><path class="cls-3" d="M67.53,8.56v5.2l4-5.2h4l-5,6L76,21.19h-4.2l-4.26-5.46v5.46H64.26V8.56Z" transform="translate(-4.57 -1.23)"/><path class="cls-4" d="M76,20l1.4-2.64a4.17,4.17,0,0,0,2.89,1.28,1.59,1.59,0,0,0,1.26-.43,1.09,1.09,0,0,0,.32-.8,1,1,0,0,0-.35-.75A5.27,5.27,0,0,0,79.86,16L79,15.74a3.86,3.86,0,0,1-1.81-1,3.16,3.16,0,0,1-.72-2.23,4.09,4.09,0,0,1,1.15-3,4.39,4.39,0,0,1,3.23-1.19,8.24,8.24,0,0,1,3.89,1l-1.3,2.55A3.5,3.5,0,0,0,81.3,11a1.53,1.53,0,0,0-1.08.38.94.94,0,0,0-.15,1.25,2.24,2.24,0,0,0,1.09.56l1,.3a5.27,5.27,0,0,1,2.28,1.25A3.19,3.19,0,0,1,85.26,17a4.24,4.24,0,0,1-1.19,3.17,5,5,0,0,1-3.72,1.29A7,7,0,0,1,77.88,21,8.09,8.09,0,0,1,76,20Z" transform="translate(-4.57 -1.23)"/><path class="cls-5" d="M94.77,11.34H92.13v9.82H88.82V11.34H86.13V8.56h8.63Z" transform="translate(-4.57 -1.23)"/><path class="cls-5" d="M104.13,21.16l-.78-2.08H98.78l-.85,2.12H94.47L99.31,8.6h3.57l4.74,12.6Zm-4.44-4.61h2.79l-1.42-4.08Z" transform="translate(-4.57 -1.23)"/><path class="cls-5" d="M117.65,17v3.87a8.6,8.6,0,0,1-2.83.62,6.66,6.66,0,0,1-4.88-1.89,6.47,6.47,0,0,1-1.38-7.12,6.59,6.59,0,0,1,1.38-2.11,6.43,6.43,0,0,1,4.76-2,8,8,0,0,1,3,.65v3.91a3.5,3.5,0,0,0-2.85-1.38,3.21,3.21,0,0,0-2.27.83,3.38,3.38,0,0,0-1.09,2.59,3.2,3.2,0,0,0,3.07,3.32h.27A3.73,3.73,0,0,0,117.65,17Z" transform="translate(-4.57 -1.23)"/><path class="cls-5" d="M123,8.56v5.19l4-5.19h4l-5,6,5.46,6.63h-4.24L123,15.73v5.46h-3.27V8.56Z" transform="translate(-4.57 -1.23)"/><polygon class="cls-6" points="24.28 18.44 24.28 17.51 17.51 17.51 17.51 27.6 18.48 27.6 18.48 18.44 24.28 18.44"/><polygon class="cls-6" points="22.55 16.71 22.55 15.78 15.78 15.78 15.78 25.88 16.75 25.88 16.75 16.71 22.55 16.71"/><rect class="cls-6" x="19.37" y="19.24" width="6.77" height="10.09"/><circle class="cls-7" cx="22.76" cy="24.02" r="1.86"/><circle class="cls-6" cx="22.76" cy="24.02" r="0.6"/><polygon class="cls-8" points="10.38 4.42 10.38 3.49 3.6 3.49 3.6 13.58 4.57 13.58 4.57 4.42 10.38 4.42"/><polygon class="cls-8" points="8.58 2.66 8.58 1.73 1.81 1.73 1.81 11.82 2.78 11.82 2.78 2.66 8.58 2.66"/><polygon class="cls-8" points="6.77 0.93 6.77 0 0 0 0 10.09 0.97 10.09 0.97 0.93 6.77 0.93"/><g class="cls-9"><path class="cls-10" d="M19.38,18.64H14.9a.83.83,0,0,1-.83-.82v-.59H10.31v3.6a1.55,1.55,0,0,0,1.55,1.52h7.52Z" transform="translate(-4.57 -1.23)"/><path class="cls-11" d="M25.39,6.29H11.86a1.53,1.53,0,0,0-1.54,1.52v3.6h3.75v-.59A.83.83,0,0,1,14.9,10h7.45a.83.83,0,0,1,.83.83h0v.59h3.76V7.81A1.55,1.55,0,0,0,25.39,6.29Z" transform="translate(-4.57 -1.23)"/><rect class="cls-12" x="5.74" y="11.24" width="3.75" height="3.71"/><rect class="cls-13" x="18.61" y="11.24" width="3.75" height="3.71"/></g></svg>