<svg id="Layer_1" data-name="Layer 1" xmlns="http://www.w3.org/2000/svg" xmlns:xlink="http://www.w3.org/1999/xlink" viewBox="0 0 54.41 45.82"><defs><style>.cls-1{fill:url(#Безымянный_градиент_8);}.cls-2{fill:url(#Безымянный_градиент_9);}.cls-3{fill:url(#Безымянный_градиент_10);}.cls-4{fill:url(#Безымянный_градиент_11);}.cls-5{isolation:isolate;}.cls-6{fill:url(#Безымянный_градиент_24);}.cls-7{fill:url(#Безымянный_градиент_3);}.cls-8{fill:url(#Безымянный_градиент_22);}.cls-9{fill:url(#Безымянный_градиент_23);}.cls-10{fill:#050208;}.cls-11{fill:url(#Безымянный_градиент_123);}.cls-12{fill:#e3e3e3;}</style><linearGradient id="Безымянный_градиент_8" x1="19.86" y1="-6.12" x2="3.6" y2="10.13" gradientTransform="matrix(1, 0, 0, -1, -2.79, 50)" gradientUnits="userSpaceOnUse"><stop offset="0" stop-color="#513895"/><stop offset="1" stop-color="#ff3748"/></linearGradient><linearGradient id="Безымянный_градиент_9" x1="24.03" y1="-1.94" x2="7.77" y2="14.31" xlink:href="#Безымянный_градиент_8"/><linearGradient id="Безымянный_градиент_10" x1="27.31" y1="1.34" x2="11.05" y2="17.59" xlink:href="#Безымянный_градиент_8"/><linearGradient id="Безымянный_градиент_11" x1="30.38" y1="4.41" x2="14.12" y2="20.66" xlink:href="#Безымянный_градиент_8"/><linearGradient id="Безымянный_градиент_24" x1="28.71" y1="16.82" x2="24.97" y2="8.8" gradientUnits="userSpaceOnUse"><stop offset="0" stop-color="#050208"/><stop offset="0" stop-color="#241339"/><stop offset="0.19" stop-color="#5d3891"/><stop offset="0.6" stop-color="#ee416d"/></linearGradient><linearGradient id="Безымянный_градиент_3" x1="27.48" y1="28.91" x2="21.89" y2="16.9" gradientUnits="userSpaceOnUse"><stop offset="0.58" stop-color="#050208"/><stop offset="0.89" stop-color="#5d3891"/><stop offset="1" stop-color="#ee416d"/></linearGradient><linearGradient id="Безымянный_градиент_22" x1="22.68" y1="17.62" x2="21.02" y2="14.06" gradientUnits="userSpaceOnUse"><stop offset="0" stop-color="#050208"/><stop offset="0.4" stop-color="#5d3891"/><stop offset="0.81" stop-color="#ee416d"/></linearGradient><linearGradient id="Безымянный_градиент_23" x1="35.65" y1="23.58" x2="29.38" y2="10.13" gradientUnits="userSpaceOnUse"><stop offset="0.54" stop-color="#050208"/><stop offset="0.67" stop-color="#5d3891"/><stop offset="0.9" stop-color="#cd3f75"/></linearGradient><linearGradient id="Безымянный_градиент_123" x1="41.75" y1="32.41" x2="39.66" y2="30.33" gradientUnits="userSpaceOnUse"><stop offset="0" stop-color="#ff384a"/><stop offset="1" stop-color="#513895"/></linearGradient></defs><path class="cls-1" d="M1.88,46.7H0l1.21-7.27H3.1l1.47,3.88,1.56-3.88H8L9.1,46.7H7.21l-.54-4.19L4.93,46.7H4.21L2.5,42.51Z" transform="translate(0 -1.05)"/><path class="cls-2" d="M14.43,39.43V41H12.21v1.21h2.1v1.6h-2.1V45.1h2.24v1.6H10.3V39.43Z" transform="translate(0 -1.05)"/><path class="cls-3" d="M17.52,39.43v3l2.31-3h2.38l-2.89,3.44,3.15,3.83H20l-2.46-3.15V46.7H15.63V39.43Z" transform="translate(0 -1.05)"/><path class="cls-4" d="M22.39,46l.8-1.52a2.41,2.41,0,0,0,1.67.74,1,1,0,0,0,.73-.25.61.61,0,0,0,.18-.46.51.51,0,0,0-.2-.43,3.23,3.23,0,0,0-.94-.39l-.49-.15A2.25,2.25,0,0,1,23.09,43a1.86,1.86,0,0,1-.41-1.28A2.38,2.38,0,0,1,23.34,40a2.55,2.55,0,0,1,1.87-.73,4.77,4.77,0,0,1,2.24.59l-.75,1.47a2,2,0,0,0-1.24-.49.87.87,0,0,0-.62.21.56.56,0,0,0-.19.4.46.46,0,0,0,.1.32,1.17,1.17,0,0,0,.63.33l.58.17a3,3,0,0,1,1.32.72,1.83,1.83,0,0,1,.47,1.3,2.48,2.48,0,0,1-.69,1.83,2.87,2.87,0,0,1-2.15.74,4.08,4.08,0,0,1-1.42-.24A4.27,4.27,0,0,1,22.39,46Z" transform="translate(0 -1.05)"/><g class="cls-5"><g class="cls-5"><path d="M33.23,41H31.68V46.7H29.79V41H28.25v-1.6h5Z" transform="translate(0 -1.05)"/></g><g class="cls-5"><path d="M38.62,46.7l-.45-1.22H35.53L35,46.7h-2l2.79-7.27H37.9l2.73,7.27ZM36.05,44h1.62l-.82-2.35Z" transform="translate(0 -1.05)"/></g><g class="cls-5"><path d="M46.42,44.27V46.5a5,5,0,0,1-1.63.36A3.84,3.84,0,0,1,42,45.77a3.81,3.81,0,0,1-1.1-2.65,3.74,3.74,0,0,1,.3-1.46,3.91,3.91,0,0,1,.8-1.22,3.7,3.7,0,0,1,2.74-1.13,4.47,4.47,0,0,1,1.7.37v2.26a2,2,0,0,0-1.64-.8,1.89,1.89,0,0,0-1.31.48,2,2,0,0,0-.63,1.49A1.86,1.86,0,0,0,44.78,45,2.14,2.14,0,0,0,46.42,44.27Z" transform="translate(0 -1.05)"/><path d="M49.51,39.43v3l2.31-3h2.33l-2.89,3.44,3.15,3.83H52l-2.46-3.15V46.7H47.62V39.43Z" transform="translate(0 -1.05)"/></g></g><path d="M24.45,27.91C12.83,22.8,4.63,15.8,6.17,12.29c.55-1.25,2.27-1.92,4.93-2v-.06c-2.69.05-4.42.74-5,2-.75,1.72.74,4.3,4.2,7.27A58.82,58.82,0,0,0,24.43,28a72.39,72.39,0,0,0,6.84,2.62l.58.18V30.7l-.56-.17A72.39,72.39,0,0,1,24.45,27.91Z" transform="translate(0 -1.05)"/><path d="M44.17,23.57a47.73,47.73,0,0,0-6.93-4.81v.07c7.59,4.42,12.27,9.25,11.08,12-.84,1.9-4.4,2.43-9.51,1.59v.06a27,27,0,0,0,4.21.38c2.84,0,4.76-.67,5.35-2C49.12,29.11,47.63,26.53,44.17,23.57Z" transform="translate(0 -1.05)"/><path d="M42.55,11.49c-1-2.17-8.47-.84-16.78,3S11.5,23.09,12.46,25.26c.87,2,7.16,1,14.54-2l.53-.22h0V18.28h6.89v1.34C39.87,16.45,43.29,13.16,42.55,11.49Z" transform="translate(0 -1.05)"/><path class="cls-6" d="M33.49,11.56a1.22,1.22,0,0,0-1.21-1.05H21.58a1.22,1.22,0,0,0-1.22,1.21v2.86h3v-.46a.66.66,0,0,1,.66-.65h5.88a.65.65,0,0,1,.66.65v.46h3V11.72A.88.88,0,0,0,33.49,11.56Z" transform="translate(0 -1.05)"/><path class="cls-7" d="M27.53,20.32H24a.66.66,0,0,1-.66-.65V19.2h-3v2.85a1.22,1.22,0,0,0,1.22,1.21H27l.53-.22V20.32Z" transform="translate(0 -1.05)"/><polygon class="cls-8" points="23.33 17.31 23.33 14.39 23.33 14.37 23.33 14.37 23.33 14.36 20.36 14.37 20.36 17.3 20.36 17.3 20.36 17.3 20.36 17.31 23.33 17.31"/><polygon class="cls-9" points="30.53 17.22 33.5 17.22 33.5 14.39 33.5 14.35 33.5 14.35 33.5 14.35 30.53 14.35 30.53 17.18 30.53 17.22"/><polygon class="cls-10" points="41.96 26.95 41.96 26.22 36.6 26.22 36.6 34.2 37.37 34.2 37.37 26.95 41.96 26.95"/><polygon class="cls-10" points="40.59 25.59 40.59 24.85 35.24 24.85 35.24 32.84 36 32.84 36 25.59 40.59 25.59"/><polygon class="cls-10" points="39.17 24.22 39.17 23.48 33.82 23.48 33.82 31.47 34.58 31.47 34.58 24.22 39.17 24.22"/><polygon class="cls-10" points="37.81 22.8 37.81 22.06 32.45 22.06 32.45 30.05 33.22 30.05 33.22 22.8 37.81 22.8"/><polygon class="cls-10" points="36.44 21.43 36.44 20.7 31.09 20.7 31.09 28.68 31.85 28.68 31.85 21.43 36.44 21.43"/><polygon class="cls-10" points="35.02 20.07 35.02 19.33 29.67 19.33 29.67 27.32 30.43 27.32 30.43 20.07 35.02 20.07"/><polygon class="cls-10" points="33.66 18.7 33.66 17.96 28.3 17.96 28.3 25.95 29.06 25.95 29.06 18.7 33.66 18.7"/><rect class="cls-10" x="38.03" y="27.58" width="5.36" height="7.98"/><circle class="cls-11" cx="40.71" cy="31.37" r="1.47"/><circle class="cls-10" cx="40.71" cy="31.37" r="0.47"/><polygon class="cls-12" points="24.02 8.98 24.02 8.24 18.67 8.24 18.67 16.23 19.43 16.23 19.43 8.98 24.02 8.98"/><polygon class="cls-12" points="22.6 7.58 22.6 6.85 17.25 6.85 17.25 14.83 18.01 14.83 18.01 7.58 22.6 7.58"/><polygon class="cls-12" points="21.17 6.22 21.17 5.48 15.81 5.48 15.81 13.46 16.58 13.46 16.58 6.22 21.17 6.22"/><polygon class="cls-12" points="19.8 4.81 19.8 4.07 14.45 4.07 14.45 12.06 15.21 12.06 15.21 4.81 19.8 4.81"/><polygon class="cls-12" points="18.41 3.44 18.41 2.71 13.05 2.71 13.05 10.69 13.82 10.69 13.82 3.44 18.41 3.44"/><polygon class="cls-12" points="17.12 2.01 17.12 1.27 11.77 1.27 11.77 9.26 12.53 9.26 12.53 2.01 17.12 2.01"/><polygon class="cls-12" points="15.69 0.74 15.69 0 10.34 0 10.34 7.99 11.1 7.99 11.1 0.74 15.69 0.74"/></svg>