<svg id="Layer_1" data-name="Layer 1" xmlns="http://www.w3.org/2000/svg" xmlns:xlink="http://www.w3.org/1999/xlink" viewBox="0 0 131.46 30.89"><defs><style>.cls-1{fill:url(#Безымянный_градиент_8);}.cls-2{fill:url(#Безымянный_градиент_9);}.cls-3{fill:url(#Безымянный_градиент_10);}.cls-4{fill:url(#Безымянный_градиент_11);}.cls-5{fill:url(#Безымянный_градиент_24);}.cls-6{fill:url(#Безымянный_градиент_3);}.cls-7{fill:url(#Безымянный_градиент_22);}.cls-8{fill:url(#Безымянный_градиент_23);}.cls-9{fill:#050208;}.cls-10{fill:url(#Безымянный_градиент_123);}.cls-11{fill:#e3e3e3;}</style><linearGradient id="Безымянный_градиент_8" x1="69.13" y1="1086.47" x2="40.96" y2="1058.3" gradientTransform="translate(-1.52 -1048.07)" gradientUnits="userSpaceOnUse"><stop offset="0" stop-color="#513895"/><stop offset="1" stop-color="#ff3748"/></linearGradient><linearGradient id="Безымянный_градиент_9" x1="76.37" y1="1079.25" x2="48.18" y2="1051.06" xlink:href="#Безымянный_градиент_8"/><linearGradient id="Безымянный_градиент_10" x1="82.02" y1="1073.6" x2="53.83" y2="1045.41" xlink:href="#Безымянный_градиент_8"/><linearGradient id="Безымянный_градиент_11" x1="87.35" y1="1068.26" x2="59.17" y2="1040.08" xlink:href="#Безымянный_градиент_8"/><linearGradient id="Безымянный_градиент_24" x1="20.65" y1="14.61" x2="17.4" y2="7.65" gradientUnits="userSpaceOnUse"><stop offset="0" stop-color="#050208"/><stop offset="0" stop-color="#241339"/><stop offset="0.19" stop-color="#5d3891"/><stop offset="0.6" stop-color="#ee416d"/></linearGradient><linearGradient id="Безымянный_градиент_3" x1="19.59" y1="25.11" x2="14.73" y2="14.69" gradientUnits="userSpaceOnUse"><stop offset="0.58" stop-color="#050208"/><stop offset="0.89" stop-color="#5d3891"/><stop offset="1" stop-color="#ee416d"/></linearGradient><linearGradient id="Безымянный_градиент_22" x1="14.54" y1="15.3" x2="13.1" y2="12.21" gradientUnits="userSpaceOnUse"><stop offset="0" stop-color="#050208"/><stop offset="0.4" stop-color="#5d3891"/><stop offset="0.81" stop-color="#ee416d"/></linearGradient><linearGradient id="Безымянный_градиент_23" x1="25.81" y1="20.48" x2="20.37" y2="8.8" gradientUnits="userSpaceOnUse"><stop offset="0.54" stop-color="#050208"/><stop offset="0.67" stop-color="#5d3891"/><stop offset="0.9" stop-color="#cd3f75"/></linearGradient><linearGradient id="Безымянный_градиент_123" x1="31.1" y1="28.15" x2="29.3" y2="26.34" gradientUnits="userSpaceOnUse"><stop offset="0" stop-color="#ff384a"/><stop offset="1" stop-color="#513895"/></linearGradient></defs><path class="cls-1" d="M41.29,22.08H38l2.14-12.6h3.26L46,16.21l2.7-6.73H52l1.89,12.6H50.55l-.93-7.25-3,7.25H45.28l-2.91-7.25Z" transform="translate(-0.87 -0.92)"/><path class="cls-2" d="M63,9.48v2.78H59.16v2.1h3.68v2.77H59.16v2.18H63v2.77H55.89V9.48Z" transform="translate(-0.87 -0.92)"/><path class="cls-3" d="M68.4,9.48v5.2l4-5.2h4l-5,6,5.46,6.63h-4.2L68.4,16.65v5.46H65.13V9.48Z" transform="translate(-0.87 -0.92)"/><path class="cls-4" d="M76.84,20.93l1.4-2.64a4.17,4.17,0,0,0,2.89,1.28,1.59,1.59,0,0,0,1.26-.43,1.09,1.09,0,0,0,.32-.8,1,1,0,0,0-.35-.75,5.27,5.27,0,0,0-1.63-.66l-.85-.27a3.86,3.86,0,0,1-1.81-1,3.16,3.16,0,0,1-.72-2.23,4.09,4.09,0,0,1,1.15-3,4.39,4.39,0,0,1,3.23-1.19,8.24,8.24,0,0,1,3.89,1l-1.3,2.55a3.5,3.5,0,0,0-2.15-.86,1.53,1.53,0,0,0-1.08.38.94.94,0,0,0-.15,1.25,2.24,2.24,0,0,0,1.09.56l1,.3a5.27,5.27,0,0,1,2.28,1.25,3.19,3.19,0,0,1,.82,2.26,4.24,4.24,0,0,1-1.19,3.17,5,5,0,0,1-3.72,1.29,7,7,0,0,1-2.47-.46A8.09,8.09,0,0,1,76.84,20.93Z" transform="translate(-0.87 -0.92)"/><path d="M95.64,12.26H93v9.82H89.69V12.26H87V9.48h8.63Z" transform="translate(-0.87 -0.92)"/><path d="M105,22.08,104.22,20H99.65l-.85,2.12H95.34l4.84-12.6h3.57l4.74,12.6Zm-4.44-4.61h2.79l-1.42-4.08Z" transform="translate(-0.87 -0.92)"/><path d="M118.52,17.87v3.87a8.6,8.6,0,0,1-2.83.62,6.66,6.66,0,0,1-4.88-1.89,6.47,6.47,0,0,1-1.38-7.12,6.59,6.59,0,0,1,1.38-2.11,6.43,6.43,0,0,1,4.76-2,8,8,0,0,1,3,.65V13.8a3.5,3.5,0,0,0-2.85-1.38,3.21,3.21,0,0,0-2.27.83,3.38,3.38,0,0,0-1.09,2.59,3.2,3.2,0,0,0,3.34,3.32A3.73,3.73,0,0,0,118.52,17.87Z" transform="translate(-0.87 -0.92)"/><path d="M123.87,9.48v5.19l4-5.19h4l-5,6,5.46,6.63h-4.24l-4.26-5.46v5.46h-3.27V9.48Z" transform="translate(-0.87 -0.92)"/><path d="M17,24.25C6.86,19.81-.26,13.73,1.08,10.68,1.56,9.6,3.05,9,5.36,9V8.92C3,9,1.52,9.56,1,10.66c-.66,1.49.64,3.73,3.65,6.31a50.93,50.93,0,0,0,12.24,7.32c2,.88,4,1.64,5.95,2.28l.5.15v0l-.49-.15C20.94,25.89,18.94,25.12,17,24.25Z" transform="translate(-0.87 -0.92)"/><path d="M34.08,20.48a41.47,41.47,0,0,0-6-4.18v.06c6.6,3.84,10.66,8,9.62,10.41-.73,1.65-3.82,2.1-8.25,1.38v.05a23,23,0,0,0,3.65.33c2.47,0,4.13-.58,4.64-1.75C38.38,25.29,37.08,23.05,34.08,20.48Z" transform="translate(-0.87 -0.92)"/><path d="M32.67,10c-.83-1.88-7.36-.72-14.57,2.58S5.71,20.06,6.54,21.94c.75,1.71,6.22.91,12.63-1.73l.46-.19h0V15.89h6v1.16C30.35,14.3,33.32,11.44,32.67,10Z" transform="translate(-0.87 -0.92)"/><path class="cls-5" d="M24.81,10.05a1.07,1.07,0,0,0-1.06-.91H14.46a1.06,1.06,0,0,0-1.06,1v2.48H16v-.41a.57.57,0,0,1,.57-.56h5.11a.56.56,0,0,1,.57.56v.4h2.58V10.19A.61.61,0,0,0,24.81,10.05Z" transform="translate(-0.87 -0.92)"/><path class="cls-6" d="M19.63,17.65H16.55a.57.57,0,0,1-.57-.57v-.4H13.4v2.48a1.06,1.06,0,0,0,1.06,1.05h4.71l.46-.19V17.65Z" transform="translate(-0.87 -0.92)"/><polygon class="cls-7" points="15.11 15.03 15.11 12.5 15.11 12.48 15.11 12.48 15.11 12.47 12.53 12.48 12.53 15.03 12.53 15.03 12.53 15.03 12.53 15.03 15.11 15.03"/><polygon class="cls-8" points="21.36 14.96 23.95 14.96 23.94 12.5 23.94 12.47 23.94 12.47 23.94 12.46 21.36 12.47 21.36 14.92 21.36 14.96"/><polygon class="cls-9" points="31.29 23.41 31.29 22.77 26.64 22.77 26.64 29.7 27.3 29.7 27.3 23.41 31.29 23.41"/><polygon class="cls-9" points="30.1 22.22 30.1 21.58 25.45 21.58 25.45 28.52 26.11 28.52 26.11 22.22 30.1 22.22"/><polygon class="cls-9" points="28.87 21.04 28.87 20.4 24.22 20.4 24.22 27.33 24.88 27.33 24.88 21.04 28.87 21.04"/><polygon class="cls-9" points="27.68 19.8 27.68 19.16 23.03 19.16 23.03 26.1 23.7 26.1 23.7 19.8 27.68 19.8"/><polygon class="cls-9" points="26.5 18.61 26.5 17.98 21.84 17.98 21.84 24.91 22.51 24.91 22.51 18.61 26.5 18.61"/><polygon class="cls-9" points="25.27 17.43 25.27 16.79 20.61 16.79 20.61 23.72 21.28 23.72 21.28 17.43 25.27 17.43"/><polygon class="cls-9" points="24.08 16.24 24.08 15.6 19.43 15.6 19.43 22.54 20.09 22.54 20.09 16.24 24.08 16.24"/><rect class="cls-9" x="27.87" y="23.96" width="4.65" height="6.93"/><circle class="cls-10" cx="30.2" cy="27.24" r="1.28"/><circle class="cls-9" cx="30.2" cy="27.24" r="0.41"/><polygon class="cls-11" points="15.71 7.79 15.71 7.16 11.06 7.16 11.06 14.09 11.72 14.09 11.72 7.79 15.71 7.79"/><polygon class="cls-11" points="14.48 6.59 14.48 5.95 9.83 5.95 9.83 12.88 10.49 12.88 10.49 6.59 14.48 6.59"/><polygon class="cls-11" points="13.23 5.4 13.23 4.76 8.58 4.76 8.58 11.69 9.25 11.69 9.25 5.4 13.23 5.4"/><polygon class="cls-11" points="12.05 4.18 12.05 3.54 7.4 3.54 7.4 10.47 8.06 10.47 8.06 4.18 12.05 4.18"/><polygon class="cls-11" points="10.84 2.99 10.84 2.35 6.19 2.35 6.19 9.29 6.85 9.29 6.85 2.99 10.84 2.99"/><polygon class="cls-11" points="9.72 1.75 9.72 1.11 5.07 1.11 5.07 8.04 5.73 8.04 5.73 1.75 9.72 1.75"/><polygon class="cls-11" points="8.48 0.64 8.48 0 3.82 0 3.82 6.93 4.49 6.93 4.49 0.64 8.48 0.64"/></svg>